<?xml version="1.0" encoding="utf-8"?>
<!-- Svg Vector Icons : http://www.onlinewebfonts.com/icon -->
<!DOCTYPE svg PUBLIC "-//W3C//DTD SVG 1.1//EN" "http://www.w3.org/Graphics/SVG/1.1/DTD/svg11.dtd">
<svg version="1.1" xmlns="http://www.w3.org/2000/svg" xmlns:xlink="http://www.w3.org/1999/xlink" x="0px" y="0px" viewBox="0 0 256 256" enable-background="new 0 0 256 256" xml:space="preserve">
<metadata> Svg Vector Icons : http://www.onlinewebfonts.com/icon </metadata>
<g><g><g><path fill="#000000" d="M28.2,10.8c-8.3,1.9-15.7,9.4-17.6,17.7C10.2,30.1,10,57,10,104.7c0,79.9-0.1,76.3,3,82.2c2,3.7,6.7,8.1,10.4,9.8c4.3,2,8.9,2.5,21.9,2.5h11.7v23.3c0,12.8,0.1,23.3,0.3,23.3s14.2-10.5,31.3-23.3l31-23.3H171c33,0,52.7-0.2,55-0.6c9.4-1.5,16.7-8.2,19.2-17.4c0.7-2.9,0.8-12.5,0.8-76.3c0-52-0.2-73.8-0.6-75.9c-1.6-7.1-6.3-13.1-13.2-16.5l-4.2-2l-98.9-0.1C72.9,10.4,29.3,10.5,28.2,10.8z M222.7,104.7v71.2h-55.3h-55.3l-15.5,11.6c-8.5,6.4-15.6,11.6-15.8,11.6c-0.3,0-0.4-5.3-0.4-11.6v-11.6H56.8H33.3v-71.2V33.5H128h94.7V104.7z"/><path fill="#000000" d="M116.4,86.6V116H128h11.6V86.6V57.3H128h-11.6V86.6z"/><path fill="#000000" d="M125.3,128.7c-8.3,2-11.6,12.3-6,18.6c6.1,7,17.5,4.5,19.8-4.3C141.3,134.8,133.6,126.8,125.3,128.7z"/></g></g></g>
</svg>